G04*
G04 #@! TF.GenerationSoftware,Altium Limited,Altium Designer,24.8.2 (39)*
G04*
G04 Layer_Color=16711935*
%FSLAX44Y44*%
%MOMM*%
G71*
G04*
G04 #@! TF.SameCoordinates,090D7C54-D181-4F83-8BE1-2E2D76EF1379*
G04*
G04*
G04 #@! TF.FilePolarity,Negative*
G04*
G01*
G75*
%ADD76C,1.6724*%
%ADD77R,1.6724X1.6724*%
%ADD78O,1.1532X1.5032*%
%ADD79R,1.2132X1.2132*%
%ADD80C,1.2132*%
%ADD81C,0.6032*%
%ADD82C,1.0032*%
G36*
X18900Y137300D02*
X18880Y137050D01*
X18850Y136800D01*
X18800Y136550D01*
X18740Y136300D01*
X18670Y136050D01*
X18590Y135810D01*
X18490Y135580D01*
X18380Y135350D01*
X18260Y135120D01*
X18120Y134900D01*
X17980Y134690D01*
X17820Y134490D01*
X17660Y134300D01*
X17480Y134110D01*
X17300Y133940D01*
X17100Y133770D01*
X16900Y133620D01*
X16690Y133470D01*
X16470Y133340D01*
X16250Y133220D01*
X16020Y133110D01*
X15780Y133010D01*
X15540Y132920D01*
X15300Y132850D01*
X15050Y132790D01*
X14800Y132750D01*
X14540Y132710D01*
X14290Y132690D01*
X14040D01*
X14035Y132685D01*
X6280Y132690D01*
X6030D01*
X5780Y132710D01*
X5520Y132750D01*
X5270Y132790D01*
X5020Y132850D01*
X4780Y132920D01*
X4540Y133010D01*
X4300Y133110D01*
X4070Y133220D01*
X3850Y133340D01*
X3630Y133470D01*
X3420Y133620D01*
X3220Y133770D01*
X3020Y133940D01*
X2840Y134110D01*
X2660Y134300D01*
X2500Y134490D01*
X2340Y134690D01*
X2200Y134900D01*
X2060Y135120D01*
X1940Y135350D01*
X1830Y135580D01*
X1730Y135810D01*
X1650Y136050D01*
X1580Y136300D01*
X1520Y136550D01*
X1470Y136800D01*
X1440Y137050D01*
X1420Y137300D01*
X1410Y137560D01*
X1420Y137820D01*
X1440Y138070D01*
X1470Y138320D01*
X1520Y138570D01*
X1580Y138820D01*
X1650Y139070D01*
X1730Y139310D01*
X1830Y139540D01*
X1940Y139770D01*
X2060Y140000D01*
X2200Y140220D01*
X2340Y140430D01*
X2500Y140630D01*
X2660Y140820D01*
X2840Y141010D01*
X3020Y141180D01*
X3220Y141350D01*
X3420Y141500D01*
X3630Y141650D01*
X3850Y141780D01*
X4070Y141900D01*
X4300Y142010D01*
X4540Y142110D01*
X4780Y142200D01*
X5020Y142270D01*
X5270Y142330D01*
X5520Y142370D01*
X5780Y142410D01*
X6030Y142430D01*
X6280D01*
X14040D01*
X14290D01*
X14540Y142410D01*
X14800Y142370D01*
X15050Y142330D01*
X15300Y142270D01*
X15540Y142200D01*
X15780Y142110D01*
X16020Y142010D01*
X16250Y141900D01*
X16470Y141780D01*
X16690Y141650D01*
X16900Y141500D01*
X17100Y141350D01*
X17300Y141180D01*
X17480Y141010D01*
X17660Y140820D01*
X17820Y140630D01*
X17980Y140430D01*
X18120Y140220D01*
X18260Y140000D01*
X18380Y139770D01*
X18490Y139540D01*
X18590Y139310D01*
X18670Y139070D01*
X18740Y138820D01*
X18800Y138570D01*
X18850Y138320D01*
X18880Y138070D01*
X18900Y137820D01*
X18910Y137560D01*
X18900Y137300D01*
D02*
G37*
G36*
Y207300D02*
X18880Y207050D01*
X18850Y206800D01*
X18800Y206550D01*
X18740Y206300D01*
X18670Y206050D01*
X18590Y205810D01*
X18490Y205580D01*
X18380Y205350D01*
X18260Y205120D01*
X18120Y204900D01*
X17980Y204690D01*
X17820Y204490D01*
X17660Y204300D01*
X17480Y204110D01*
X17300Y203940D01*
X17100Y203770D01*
X16900Y203620D01*
X16690Y203470D01*
X16470Y203340D01*
X16250Y203220D01*
X16020Y203110D01*
X15780Y203010D01*
X15540Y202920D01*
X15300Y202850D01*
X15050Y202790D01*
X14800Y202750D01*
X14540Y202710D01*
X14290Y202690D01*
X14040D01*
X14035Y202685D01*
X6280Y202690D01*
X6030D01*
X5780Y202710D01*
X5520Y202750D01*
X5270Y202790D01*
X5020Y202850D01*
X4780Y202920D01*
X4540Y203010D01*
X4300Y203110D01*
X4070Y203220D01*
X3850Y203340D01*
X3630Y203470D01*
X3420Y203620D01*
X3220Y203770D01*
X3020Y203940D01*
X2840Y204110D01*
X2660Y204300D01*
X2500Y204490D01*
X2340Y204690D01*
X2200Y204900D01*
X2060Y205120D01*
X1940Y205350D01*
X1830Y205580D01*
X1730Y205810D01*
X1650Y206050D01*
X1580Y206300D01*
X1520Y206550D01*
X1470Y206800D01*
X1440Y207050D01*
X1420Y207300D01*
X1410Y207560D01*
X1420Y207820D01*
X1440Y208070D01*
X1470Y208320D01*
X1520Y208570D01*
X1580Y208820D01*
X1650Y209070D01*
X1730Y209310D01*
X1830Y209540D01*
X1940Y209770D01*
X2060Y210000D01*
X2200Y210220D01*
X2340Y210430D01*
X2500Y210630D01*
X2660Y210820D01*
X2840Y211010D01*
X3020Y211180D01*
X3220Y211350D01*
X3420Y211500D01*
X3630Y211650D01*
X3850Y211780D01*
X4070Y211900D01*
X4300Y212010D01*
X4540Y212110D01*
X4780Y212200D01*
X5020Y212270D01*
X5270Y212330D01*
X5520Y212370D01*
X5780Y212410D01*
X6030Y212430D01*
X6280D01*
X14040D01*
X14290D01*
X14540Y212410D01*
X14800Y212370D01*
X15050Y212330D01*
X15300Y212270D01*
X15540Y212200D01*
X15780Y212110D01*
X16020Y212010D01*
X16250Y211900D01*
X16470Y211780D01*
X16690Y211650D01*
X16900Y211500D01*
X17100Y211350D01*
X17300Y211180D01*
X17480Y211010D01*
X17660Y210820D01*
X17820Y210630D01*
X17980Y210430D01*
X18120Y210220D01*
X18260Y210000D01*
X18380Y209770D01*
X18490Y209540D01*
X18590Y209310D01*
X18670Y209070D01*
X18740Y208820D01*
X18800Y208570D01*
X18850Y208320D01*
X18880Y208070D01*
X18900Y207820D01*
X18910Y207560D01*
X18900Y207300D01*
D02*
G37*
D76*
X161290Y198910D02*
D03*
D77*
Y168910D02*
D03*
D78*
X37160Y147560D02*
D03*
Y197560D02*
D03*
D79*
X363220Y186690D02*
D03*
X234950Y359410D02*
D03*
D80*
X388620Y186690D02*
D03*
X209550Y359410D02*
D03*
D81*
X151130Y228600D02*
D03*
X222250Y334010D02*
D03*
X214630Y341630D02*
D03*
X142240Y236220D02*
D03*
X135890Y242570D02*
D03*
X226060Y262890D02*
D03*
X641350Y306070D02*
D03*
X424180Y26670D02*
D03*
X431800D02*
D03*
X424180Y34290D02*
D03*
X431800D02*
D03*
X424180Y41910D02*
D03*
X431800D02*
D03*
X424180Y49530D02*
D03*
X431800D02*
D03*
X424180Y57150D02*
D03*
X431800D02*
D03*
X424180Y64770D02*
D03*
X431800D02*
D03*
X424180Y72390D02*
D03*
X431800D02*
D03*
X424180Y80010D02*
D03*
X431800D02*
D03*
X424180Y87630D02*
D03*
X431800D02*
D03*
X424180Y95250D02*
D03*
X431800D02*
D03*
X424180Y102870D02*
D03*
X431800D02*
D03*
X424180Y110490D02*
D03*
X431800D02*
D03*
X424180Y118110D02*
D03*
X431800D02*
D03*
X424180Y125730D02*
D03*
X431800D02*
D03*
X424180Y133350D02*
D03*
X431800D02*
D03*
X424180Y140970D02*
D03*
X431800D02*
D03*
X424180Y148590D02*
D03*
X431800D02*
D03*
X424180Y156210D02*
D03*
X431800D02*
D03*
X424180Y163830D02*
D03*
X431800D02*
D03*
X424180Y171450D02*
D03*
X431800D02*
D03*
X424180Y179070D02*
D03*
X431800D02*
D03*
X424180Y186690D02*
D03*
X431800D02*
D03*
X424180Y194310D02*
D03*
X431800D02*
D03*
X424180Y201930D02*
D03*
X431800D02*
D03*
X445770Y229870D02*
D03*
D03*
X431800Y209550D02*
D03*
X424180D02*
D03*
X416560Y217170D02*
D03*
X408940D02*
D03*
X401320D02*
D03*
Y224790D02*
D03*
X408940D02*
D03*
X416560D02*
D03*
X424180Y217170D02*
D03*
Y224790D02*
D03*
Y232410D02*
D03*
Y240030D02*
D03*
Y247650D02*
D03*
Y255270D02*
D03*
Y262890D02*
D03*
Y270510D02*
D03*
Y278130D02*
D03*
Y358140D02*
D03*
Y350520D02*
D03*
Y342900D02*
D03*
Y335280D02*
D03*
Y327660D02*
D03*
Y320040D02*
D03*
X386080Y373380D02*
D03*
X393700D02*
D03*
X401320D02*
D03*
X408940Y365760D02*
D03*
X416560D02*
D03*
X408940Y373380D02*
D03*
X416560D02*
D03*
X424180Y365760D02*
D03*
Y373380D02*
D03*
X431800D02*
D03*
Y365760D02*
D03*
Y358140D02*
D03*
Y350520D02*
D03*
Y217170D02*
D03*
Y224790D02*
D03*
Y232410D02*
D03*
Y240030D02*
D03*
Y247650D02*
D03*
X424180Y285750D02*
D03*
Y312420D02*
D03*
X431800Y342900D02*
D03*
Y335280D02*
D03*
Y327660D02*
D03*
Y320040D02*
D03*
Y312420D02*
D03*
Y255270D02*
D03*
Y262890D02*
D03*
Y270510D02*
D03*
Y278130D02*
D03*
Y285750D02*
D03*
D82*
X81280Y280670D02*
D03*
X312420Y207010D02*
D03*
X325120Y191770D02*
D03*
X332740Y270510D02*
D03*
Y257810D02*
D03*
X321310D02*
D03*
X309880D02*
D03*
X298450D02*
D03*
X332740Y294640D02*
D03*
X309880D02*
D03*
X298450D02*
D03*
X335280Y207010D02*
D03*
X355600Y314960D02*
D03*
X367030Y27940D02*
D03*
X408940Y26670D02*
D03*
X321310Y270510D02*
D03*
X309880D02*
D03*
X298450D02*
D03*
X332740Y281940D02*
D03*
X321310D02*
D03*
X309880D02*
D03*
X298450D02*
D03*
X321310Y294640D02*
D03*
X271780Y295910D02*
D03*
X233680Y323850D02*
D03*
X259080Y351790D02*
D03*
X260350Y325120D02*
D03*
X389890Y299720D02*
D03*
X260350Y229870D02*
D03*
X200660Y316230D02*
D03*
X173990Y325120D02*
D03*
X144780Y294640D02*
D03*
X109100Y327780D02*
D03*
X233680Y254000D02*
D03*
X279400Y218440D02*
D03*
X354330Y120650D02*
D03*
X31750Y358140D02*
D03*
X180340Y208280D02*
D03*
X290830Y99060D02*
D03*
X271780Y36830D02*
D03*
X290830Y153670D02*
D03*
X181610Y34290D02*
D03*
X335280Y372110D02*
D03*
X414020Y349250D02*
D03*
X283210Y364490D02*
D03*
X142240Y53340D02*
D03*
X73660Y166370D02*
D03*
M02*
