G04*
G04 #@! TF.GenerationSoftware,Altium Limited,Altium Designer,24.8.2 (39)*
G04*
G04 Layer_Color=8421504*
%FSLAX44Y44*%
%MOMM*%
G71*
G04*
G04 #@! TF.SameCoordinates,090D7C54-D181-4F83-8BE1-2E2D76EF1379*
G04*
G04*
G04 #@! TF.FilePolarity,Positive*
G04*
G01*
G75*
G04:AMPARAMS|DCode=14|XSize=1.97mm|YSize=0.6mm|CornerRadius=0.075mm|HoleSize=0mm|Usage=FLASHONLY|Rotation=90.000|XOffset=0mm|YOffset=0mm|HoleType=Round|Shape=RoundedRectangle|*
%AMROUNDEDRECTD14*
21,1,1.9700,0.4500,0,0,90.0*
21,1,1.8200,0.6000,0,0,90.0*
1,1,0.1500,0.2250,0.9100*
1,1,0.1500,0.2250,-0.9100*
1,1,0.1500,-0.2250,-0.9100*
1,1,0.1500,-0.2250,0.9100*
%
%ADD14ROUNDEDRECTD14*%
%ADD15O,0.8000X0.3000*%
%ADD16O,0.3000X0.8000*%
%ADD17R,0.9700X0.9400*%
%ADD18R,0.9700X1.0000*%
%ADD19R,0.9400X0.9700*%
G04:AMPARAMS|DCode=20|XSize=0.94mm|YSize=1.02mm|CornerRadius=0.094mm|HoleSize=0mm|Usage=FLASHONLY|Rotation=270.000|XOffset=0mm|YOffset=0mm|HoleType=Round|Shape=RoundedRectangle|*
%AMROUNDEDRECTD20*
21,1,0.9400,0.8320,0,0,270.0*
21,1,0.7520,1.0200,0,0,270.0*
1,1,0.1880,-0.4160,-0.3760*
1,1,0.1880,-0.4160,0.3760*
1,1,0.1880,0.4160,0.3760*
1,1,0.1880,0.4160,-0.3760*
%
%ADD20ROUNDEDRECTD20*%
%ADD21R,0.8000X0.8000*%
G04:AMPARAMS|DCode=22|XSize=0.94mm|YSize=1.02mm|CornerRadius=0.094mm|HoleSize=0mm|Usage=FLASHONLY|Rotation=0.000|XOffset=0mm|YOffset=0mm|HoleType=Round|Shape=RoundedRectangle|*
%AMROUNDEDRECTD22*
21,1,0.9400,0.8320,0,0,0.0*
21,1,0.7520,1.0200,0,0,0.0*
1,1,0.1880,0.3760,-0.4160*
1,1,0.1880,-0.3760,-0.4160*
1,1,0.1880,-0.3760,0.4160*
1,1,0.1880,0.3760,0.4160*
%
%ADD22ROUNDEDRECTD22*%
%ADD23R,1.5000X1.3000*%
%ADD24R,1.3000X1.3000*%
%ADD25R,1.0500X0.6000*%
%ADD26R,1.5000X1.3000*%
%ADD27R,1.5500X1.5000*%
%ADD28R,1.3500X0.4000*%
%ADD29R,0.6000X1.0500*%
%ADD30R,1.0000X2.0000*%
%ADD31R,1.4000X1.0000*%
%ADD32R,1.2300X0.6000*%
%ADD33R,1.3000X1.5000*%
%ADD34R,0.6100X1.5000*%
%ADD35R,1.5000X0.6100*%
%ADD36R,1.5000X1.7000*%
%ADD37R,1.0922X1.9050*%
%ADD38R,0.7000X0.5000*%
%ADD39R,1.0000X1.4000*%
%ADD40R,1.8100X3.4808*%
%ADD41R,1.8100X0.8900*%
G04:AMPARAMS|DCode=42|XSize=1mm|YSize=1mm|CornerRadius=0.25mm|HoleSize=0mm|Usage=FLASHONLY|Rotation=0.000|XOffset=0mm|YOffset=0mm|HoleType=Round|Shape=RoundedRectangle|*
%AMROUNDEDRECTD42*
21,1,1.0000,0.5000,0,0,0.0*
21,1,0.5000,1.0000,0,0,0.0*
1,1,0.5000,0.2500,-0.2500*
1,1,0.5000,-0.2500,-0.2500*
1,1,0.5000,-0.2500,0.2500*
1,1,0.5000,0.2500,0.2500*
%
%ADD42ROUNDEDRECTD42*%
%ADD43R,2.0000X2.0000*%
%ADD44R,1.0000X0.9700*%
%ADD45R,1.7300X0.9700*%
G36*
X17900Y137850D02*
X17880Y137590D01*
X17850Y137330D01*
X17800Y137070D01*
X17740Y136820D01*
X17670Y136560D01*
X17580Y136320D01*
X17480Y136080D01*
X17370Y135840D01*
X17240Y135610D01*
X17100Y135390D01*
X16960Y135170D01*
X16800Y134960D01*
X16630Y134760D01*
X16450Y134570D01*
X16260Y134390D01*
X16060Y134220D01*
X15850Y134060D01*
X15630Y133920D01*
X15410Y133780D01*
X15180Y133650D01*
X14940Y133540D01*
X14700Y133440D01*
X14460Y133350D01*
X14200Y133280D01*
X13950Y133220D01*
X13690Y133170D01*
X13430Y133140D01*
X13170Y133120D01*
X12910Y133110D01*
X7410D01*
X7150Y133120D01*
X6890Y133140D01*
X6630Y133170D01*
X6370Y133220D01*
X6120Y133280D01*
X5860Y133350D01*
X5620Y133440D01*
X5380Y133540D01*
X5140Y133650D01*
X4910Y133780D01*
X4690Y133920D01*
X4470Y134060D01*
X4260Y134220D01*
X4060Y134390D01*
X3870Y134570D01*
X3690Y134760D01*
X3520Y134960D01*
X3360Y135170D01*
X3220Y135390D01*
X3080Y135610D01*
X2950Y135840D01*
X2840Y136080D01*
X2740Y136320D01*
X2650Y136560D01*
X2580Y136820D01*
X2520Y137070D01*
X2470Y137330D01*
X2440Y137590D01*
X2420Y137850D01*
X2410Y138110D01*
Y149560D01*
X17910D01*
Y138110D01*
X17900Y137850D01*
D02*
G37*
G36*
X2410Y195560D02*
Y207010D01*
X2420Y207270D01*
X2440Y207530D01*
X2470Y207790D01*
X2520Y208050D01*
X2580Y208300D01*
X2650Y208560D01*
X2740Y208800D01*
X2840Y209040D01*
X2950Y209280D01*
X3080Y209510D01*
X3220Y209730D01*
X3360Y209950D01*
X3520Y210160D01*
X3690Y210360D01*
X3870Y210550D01*
X4060Y210730D01*
X4260Y210900D01*
X4470Y211060D01*
X4690Y211200D01*
X4910Y211340D01*
X5140Y211470D01*
X5380Y211580D01*
X5620Y211680D01*
X5860Y211770D01*
X6120Y211840D01*
X6370Y211900D01*
X6630Y211950D01*
X6890Y211980D01*
X7150Y212000D01*
X7410Y212010D01*
X12910D01*
X13170Y212000D01*
X13430Y211980D01*
X13690Y211950D01*
X13950Y211900D01*
X14200Y211840D01*
X14460Y211770D01*
X14700Y211680D01*
X14940Y211580D01*
X15180Y211470D01*
X15410Y211340D01*
X15630Y211200D01*
X15850Y211060D01*
X16060Y210900D01*
X16260Y210730D01*
X16450Y210550D01*
X16630Y210360D01*
X16800Y210160D01*
X16960Y209950D01*
X17100Y209730D01*
X17240Y209510D01*
X17370Y209280D01*
X17480Y209040D01*
X17580Y208800D01*
X17670Y208560D01*
X17740Y208300D01*
X17800Y208050D01*
X17850Y207790D01*
X17880Y207530D01*
X17900Y207270D01*
X17910Y207010D01*
Y195560D01*
X2410D01*
D02*
G37*
G36*
X130120Y101050D02*
Y88150D01*
X113720D01*
Y101050D01*
X130120D01*
D02*
G37*
G36*
X330250Y261796D02*
X301226D01*
Y290820D01*
X330250D01*
Y261796D01*
D02*
G37*
D14*
X102870Y119350D02*
D03*
X115570D02*
D03*
X128270D02*
D03*
X140970D02*
D03*
Y69850D02*
D03*
X128270D02*
D03*
X115570D02*
D03*
X102870D02*
D03*
D15*
X285750Y298320D02*
D03*
Y294320D02*
D03*
Y290320D02*
D03*
Y286320D02*
D03*
Y282320D02*
D03*
Y278320D02*
D03*
Y274320D02*
D03*
Y270320D02*
D03*
Y266320D02*
D03*
Y262320D02*
D03*
Y258320D02*
D03*
Y254320D02*
D03*
X345750D02*
D03*
Y258320D02*
D03*
Y262320D02*
D03*
Y266320D02*
D03*
Y270320D02*
D03*
Y274320D02*
D03*
Y278320D02*
D03*
Y282320D02*
D03*
Y286320D02*
D03*
Y290320D02*
D03*
Y294320D02*
D03*
Y298320D02*
D03*
D16*
X293750Y246320D02*
D03*
X297750D02*
D03*
X301750D02*
D03*
X305750D02*
D03*
X309750D02*
D03*
X313750D02*
D03*
X317750D02*
D03*
X321750D02*
D03*
X325750D02*
D03*
X329750D02*
D03*
X333750D02*
D03*
X337750D02*
D03*
Y306320D02*
D03*
X333750D02*
D03*
X329750D02*
D03*
X325750D02*
D03*
X321750D02*
D03*
X317750D02*
D03*
X313750D02*
D03*
X309750D02*
D03*
X305750D02*
D03*
X301750D02*
D03*
X297750D02*
D03*
X293750D02*
D03*
D17*
X398900Y252730D02*
D03*
X413900D02*
D03*
X308490Y367030D02*
D03*
X293490D02*
D03*
X398900Y238760D02*
D03*
X413900D02*
D03*
X245230Y254000D02*
D03*
X260230D02*
D03*
X246500Y312420D02*
D03*
X261500D02*
D03*
X353180Y374650D02*
D03*
X368180D02*
D03*
X362070Y299720D02*
D03*
X377070D02*
D03*
X398900D02*
D03*
X413900D02*
D03*
Y269240D02*
D03*
X398900D02*
D03*
D18*
X368300Y268970D02*
D03*
Y254270D02*
D03*
X383540Y253730D02*
D03*
Y239030D02*
D03*
D19*
Y223400D02*
D03*
Y208400D02*
D03*
X125730Y265310D02*
D03*
Y250310D02*
D03*
X97790Y342780D02*
D03*
Y327780D02*
D03*
X335280Y345560D02*
D03*
Y360560D02*
D03*
X383540Y269360D02*
D03*
Y284360D02*
D03*
X414020Y322700D02*
D03*
Y337700D02*
D03*
X271780Y337940D02*
D03*
Y352940D02*
D03*
D20*
X281940Y206020D02*
D03*
Y190220D02*
D03*
X210820Y262610D02*
D03*
Y278410D02*
D03*
X81280Y306350D02*
D03*
Y290550D02*
D03*
X99060Y306350D02*
D03*
Y290550D02*
D03*
X372110Y86080D02*
D03*
Y101880D02*
D03*
X351790Y86080D02*
D03*
Y101880D02*
D03*
X129540Y164110D02*
D03*
Y148310D02*
D03*
X113030Y164110D02*
D03*
Y148310D02*
D03*
D21*
X299720Y189870D02*
D03*
Y206370D02*
D03*
X128270Y192410D02*
D03*
Y208910D02*
D03*
X113030D02*
D03*
Y192410D02*
D03*
D22*
X193320Y240030D02*
D03*
X177520D02*
D03*
X126720Y323850D02*
D03*
X142520D02*
D03*
X143230Y339090D02*
D03*
X159030D02*
D03*
X67030Y345440D02*
D03*
X82830D02*
D03*
X67030Y327660D02*
D03*
X82830D02*
D03*
X42190D02*
D03*
X26390D02*
D03*
X213640Y34290D02*
D03*
X197840D02*
D03*
X274040Y86360D02*
D03*
X289840D02*
D03*
X351510Y208280D02*
D03*
X367310D02*
D03*
X117120Y46990D02*
D03*
X101320D02*
D03*
D23*
X58700Y273610D02*
D03*
X13700D02*
D03*
D24*
X12700Y308610D02*
D03*
D25*
X12670Y236220D02*
D03*
X40670D02*
D03*
X278100Y59690D02*
D03*
X306100D02*
D03*
X326360Y35560D02*
D03*
X354360D02*
D03*
D26*
X214630Y203810D02*
D03*
Y184810D02*
D03*
X161290Y100990D02*
D03*
Y119990D02*
D03*
X88900Y161900D02*
D03*
Y142900D02*
D03*
D27*
X10160Y162560D02*
D03*
Y182560D02*
D03*
D28*
X36910Y159560D02*
D03*
Y166060D02*
D03*
Y172560D02*
D03*
Y179060D02*
D03*
Y185560D02*
D03*
D29*
X326390Y58390D02*
D03*
Y86390D02*
D03*
D30*
X392430Y34060D02*
D03*
Y164060D02*
D03*
D31*
X291690Y137770D02*
D03*
Y118770D02*
D03*
X313690Y128270D02*
D03*
D32*
X259520Y46380D02*
D03*
Y65380D02*
D03*
X238320Y55880D02*
D03*
D33*
X216510Y62230D02*
D03*
X197510D02*
D03*
X216510Y83820D02*
D03*
X197510D02*
D03*
D34*
X172720Y311520D02*
D03*
Y262520D02*
D03*
D35*
X159720Y307020D02*
D03*
Y299020D02*
D03*
Y291020D02*
D03*
Y283020D02*
D03*
Y275020D02*
D03*
Y267020D02*
D03*
X185720Y307020D02*
D03*
Y299020D02*
D03*
Y291020D02*
D03*
Y283020D02*
D03*
Y275020D02*
D03*
Y267020D02*
D03*
D36*
X392000Y323850D02*
D03*
Y349250D02*
D03*
X370000D02*
D03*
Y323850D02*
D03*
D37*
X315722Y337820D02*
D03*
X291338D02*
D03*
D38*
X51910Y345440D02*
D03*
X31910D02*
D03*
D39*
X99670Y262460D02*
D03*
X80670D02*
D03*
X90170Y240460D02*
D03*
D40*
X195960Y132080D02*
D03*
D41*
X256160Y155080D02*
D03*
Y132080D02*
D03*
Y109080D02*
D03*
D42*
X274320Y161290D02*
D03*
X6350Y347980D02*
D03*
Y327660D02*
D03*
D43*
X21590Y34930D02*
D03*
Y114930D02*
D03*
D44*
X413750Y284480D02*
D03*
X399050D02*
D03*
D45*
X90170Y179510D02*
D03*
Y209110D02*
D03*
M02*
