G04*
G04 #@! TF.GenerationSoftware,Altium Limited,Altium Designer,24.8.2 (39)*
G04*
G04 Layer_Physical_Order=2*
G04 Layer_Color=16711680*
%FSLAX44Y44*%
%MOMM*%
G71*
G04*
G04 #@! TF.SameCoordinates,090D7C54-D181-4F83-8BE1-2E2D76EF1379*
G04*
G04*
G04 #@! TF.FilePolarity,Positive*
G04*
G01*
G75*
%ADD84C,1.0000*%
%ADD85C,0.5000*%
%ADD86C,0.2500*%
%ADD92C,1.5200*%
%ADD93R,1.5200X1.5200*%
%ADD94O,0.9500X1.3000*%
%ADD95O,1.5500X0.7750*%
%ADD96R,1.0100X1.0100*%
%ADD97C,1.0100*%
%ADD98C,0.4000*%
%ADD99C,0.8000*%
G36*
X435610Y290830D02*
X450850D01*
Y21590D01*
X418863D01*
X417382Y214630D01*
X-5080D01*
Y381000D01*
X435610D01*
Y290830D01*
D02*
G37*
%LPC*%
G36*
X240900Y365360D02*
X229000D01*
Y353460D01*
X240900D01*
Y365360D01*
D02*
G37*
G36*
X174965Y330020D02*
X173015D01*
X171214Y329274D01*
X169836Y327896D01*
X169090Y326095D01*
Y324145D01*
X169836Y322344D01*
X171214Y320966D01*
X173015Y320220D01*
X174965D01*
X176766Y320966D01*
X177453Y321653D01*
X190334D01*
X195760Y316227D01*
Y315255D01*
X196506Y313454D01*
X197884Y312076D01*
X199685Y311330D01*
X201635D01*
X203436Y312076D01*
X204814Y313454D01*
X205560Y315255D01*
Y317205D01*
X204814Y319006D01*
X203436Y320384D01*
X201635Y321130D01*
X200662D01*
X194221Y327571D01*
X193097Y328323D01*
X191770Y328587D01*
X177453D01*
X176766Y329274D01*
X174965Y330020D01*
D02*
G37*
G36*
X260350Y331136D02*
X258048Y330678D01*
X256096Y329374D01*
X254792Y327422D01*
X254334Y325120D01*
Y229870D01*
X254792Y227568D01*
X256096Y225616D01*
X258048Y224312D01*
X260350Y223854D01*
X327935D01*
X330238Y224312D01*
X332189Y225616D01*
X368744Y262171D01*
X370048Y264122D01*
X370506Y266425D01*
Y299308D01*
Y306070D01*
X370048Y308372D01*
X368744Y310324D01*
X359854Y319214D01*
X357902Y320518D01*
X355600Y320976D01*
X353298Y320518D01*
X351346Y319214D01*
X350042Y317262D01*
X349584Y314960D01*
X350042Y312658D01*
X351346Y310706D01*
X358474Y303578D01*
Y299308D01*
Y268916D01*
X325444Y235886D01*
X266366D01*
Y325120D01*
X265908Y327422D01*
X264604Y329374D01*
X262652Y330678D01*
X260350Y331136D01*
D02*
G37*
%LPD*%
D84*
X81280Y280670D02*
X88900D01*
X109220Y300990D01*
X355600Y314960D02*
X364490Y306070D01*
Y299308D02*
Y306070D01*
X398475Y373860D02*
X414411Y357925D01*
X389890Y373860D02*
X398475D01*
X337030D02*
X389890D01*
Y299720D02*
Y373860D01*
Y232410D02*
Y299720D01*
X400050Y222250D02*
X420370Y242570D01*
X389890Y232410D02*
X400050Y222250D01*
X414411Y349641D02*
Y357925D01*
X414020Y349250D02*
X414411Y349641D01*
X233680Y323850D02*
Y326390D01*
Y297660D02*
Y323850D01*
X271780Y295910D02*
Y353060D01*
X283210Y364490D02*
X292100Y373380D01*
X271780Y353060D02*
X283210Y364490D01*
X335280Y372110D02*
X337030Y373860D01*
X334010Y373380D02*
X335280Y372110D01*
X292100Y373380D02*
X334010D01*
X233680Y326390D02*
X259080Y351790D01*
X260350Y229870D02*
Y325120D01*
X31750Y358140D02*
X62110Y327780D01*
X109100D01*
X327935Y229870D02*
X364490Y266425D01*
Y299308D01*
X260350Y229870D02*
X327935D01*
X233680Y254000D02*
Y294640D01*
Y224298D02*
Y254000D01*
X145260Y295120D02*
X233680D01*
Y224298D02*
X239538Y218440D01*
X279400D01*
X180340Y208280D02*
Y233680D01*
Y59690D02*
Y208280D01*
X115078Y295132D02*
X144288D01*
X144780Y294640D01*
Y269240D02*
X180340Y233680D01*
X144780Y294640D02*
X145260Y295120D01*
X144780Y269240D02*
Y294640D01*
X109220Y300990D02*
X115078Y295132D01*
X109100Y327780D02*
X109220Y327660D01*
X293370Y59690D02*
X354330Y120650D01*
X180340Y59690D02*
X293370D01*
X109220Y300990D02*
Y327660D01*
X180340Y35560D02*
Y59690D01*
Y35560D02*
X181610Y34290D01*
D85*
X141544Y52644D02*
X144735D01*
X191770Y325120D02*
X200660Y316230D01*
X173990Y325120D02*
X191770D01*
X291404Y99634D02*
X294537D01*
X290830Y99060D02*
X291404Y99634D01*
X290830Y153670D02*
X301871D01*
X304800Y150741D01*
Y109897D02*
Y150741D01*
X294537Y99634D02*
X304800Y109897D01*
X144735Y52644D02*
X148590Y56499D01*
Y83820D01*
X141544Y52644D02*
X142240Y53340D01*
X73660Y129929D02*
Y166370D01*
X76589Y127000D02*
X105410D01*
X148590Y83820D01*
X73660Y129929D02*
X76589Y127000D01*
D86*
X312420Y179070D02*
X330200Y161290D01*
X312420Y179070D02*
Y207010D01*
X325120Y174184D02*
Y191770D01*
X335280Y171644D02*
Y207010D01*
X325120Y174184D02*
X332934Y166370D01*
X336744Y170180D02*
X410015D01*
X408940Y28158D02*
X411480Y30698D01*
Y168715D01*
X410015Y170180D02*
X411480Y168715D01*
X408940Y26670D02*
Y28158D01*
X407670Y34906D02*
Y164905D01*
X402564Y33441D02*
X406205D01*
X332934Y166370D02*
X406205D01*
Y33441D02*
X407670Y34906D01*
X406205Y166370D02*
X407670Y164905D01*
X322169Y36841D02*
X402396D01*
X330200Y161290D02*
X402396D01*
Y36841D02*
X403860Y38306D01*
Y159825D01*
X402396Y161290D02*
X403860Y159825D01*
X271780Y36830D02*
X322158D01*
X322169Y36841D01*
X367030Y27940D02*
X367830D01*
X364490Y299308D02*
X364960Y298838D01*
X335280Y171644D02*
X336744Y170180D01*
X372910Y22860D02*
X391983D01*
X367830Y27940D02*
X372910Y22860D01*
X391983D02*
X402564Y33441D01*
D92*
X161290Y198910D02*
D03*
D93*
Y168910D02*
D03*
D94*
X37160Y147560D02*
D03*
Y197560D02*
D03*
D95*
X10160Y137560D02*
D03*
Y207560D02*
D03*
D96*
X363220Y186690D02*
D03*
X234950Y359410D02*
D03*
D97*
X388620Y186690D02*
D03*
X209550Y359410D02*
D03*
D98*
X151130Y228600D02*
D03*
X222250Y334010D02*
D03*
X214630Y341630D02*
D03*
X142240Y236220D02*
D03*
X135890Y242570D02*
D03*
X226060Y262890D02*
D03*
X641350Y306070D02*
D03*
X424180Y26670D02*
D03*
X431800D02*
D03*
X424180Y34290D02*
D03*
X431800D02*
D03*
X424180Y41910D02*
D03*
X431800D02*
D03*
X424180Y49530D02*
D03*
X431800D02*
D03*
X424180Y57150D02*
D03*
X431800D02*
D03*
X424180Y64770D02*
D03*
X431800D02*
D03*
X424180Y72390D02*
D03*
X431800D02*
D03*
X424180Y80010D02*
D03*
X431800D02*
D03*
X424180Y87630D02*
D03*
X431800D02*
D03*
X424180Y95250D02*
D03*
X431800D02*
D03*
X424180Y102870D02*
D03*
X431800D02*
D03*
X424180Y110490D02*
D03*
X431800D02*
D03*
X424180Y118110D02*
D03*
X431800D02*
D03*
X424180Y125730D02*
D03*
X431800D02*
D03*
X424180Y133350D02*
D03*
X431800D02*
D03*
X424180Y140970D02*
D03*
X431800D02*
D03*
X424180Y148590D02*
D03*
X431800D02*
D03*
X424180Y156210D02*
D03*
X431800D02*
D03*
X424180Y163830D02*
D03*
X431800D02*
D03*
X424180Y171450D02*
D03*
X431800D02*
D03*
X424180Y179070D02*
D03*
X431800D02*
D03*
X424180Y186690D02*
D03*
X431800D02*
D03*
X424180Y194310D02*
D03*
X431800D02*
D03*
X424180Y201930D02*
D03*
X431800D02*
D03*
X445770Y229870D02*
D03*
D03*
X431800Y209550D02*
D03*
X424180D02*
D03*
X416560Y217170D02*
D03*
X408940D02*
D03*
X401320D02*
D03*
Y224790D02*
D03*
X408940D02*
D03*
X416560D02*
D03*
X424180Y217170D02*
D03*
Y224790D02*
D03*
Y232410D02*
D03*
Y240030D02*
D03*
Y247650D02*
D03*
Y255270D02*
D03*
Y262890D02*
D03*
Y270510D02*
D03*
Y278130D02*
D03*
Y358140D02*
D03*
Y350520D02*
D03*
Y342900D02*
D03*
Y335280D02*
D03*
Y327660D02*
D03*
Y320040D02*
D03*
X386080Y373380D02*
D03*
X393700D02*
D03*
X401320D02*
D03*
X408940Y365760D02*
D03*
X416560D02*
D03*
X408940Y373380D02*
D03*
X416560D02*
D03*
X424180Y365760D02*
D03*
Y373380D02*
D03*
X431800D02*
D03*
Y365760D02*
D03*
Y358140D02*
D03*
Y350520D02*
D03*
Y217170D02*
D03*
Y224790D02*
D03*
Y232410D02*
D03*
Y240030D02*
D03*
Y247650D02*
D03*
X424180Y285750D02*
D03*
Y312420D02*
D03*
X431800Y342900D02*
D03*
Y335280D02*
D03*
Y327660D02*
D03*
Y320040D02*
D03*
Y312420D02*
D03*
Y255270D02*
D03*
Y262890D02*
D03*
Y270510D02*
D03*
Y278130D02*
D03*
Y285750D02*
D03*
D99*
X81280Y280670D02*
D03*
X312420Y207010D02*
D03*
X325120Y191770D02*
D03*
X332740Y270510D02*
D03*
Y257810D02*
D03*
X321310D02*
D03*
X309880D02*
D03*
X298450D02*
D03*
X332740Y294640D02*
D03*
X309880D02*
D03*
X298450D02*
D03*
X335280Y207010D02*
D03*
X355600Y314960D02*
D03*
X367030Y27940D02*
D03*
X408940Y26670D02*
D03*
X321310Y270510D02*
D03*
X309880D02*
D03*
X298450D02*
D03*
X332740Y281940D02*
D03*
X321310D02*
D03*
X309880D02*
D03*
X298450D02*
D03*
X321310Y294640D02*
D03*
X271780Y295910D02*
D03*
X233680Y323850D02*
D03*
X259080Y351790D02*
D03*
X260350Y325120D02*
D03*
X389890Y299720D02*
D03*
X260350Y229870D02*
D03*
X200660Y316230D02*
D03*
X173990Y325120D02*
D03*
X144780Y294640D02*
D03*
X109100Y327780D02*
D03*
X233680Y254000D02*
D03*
X279400Y218440D02*
D03*
X354330Y120650D02*
D03*
X31750Y358140D02*
D03*
X180340Y208280D02*
D03*
X290830Y99060D02*
D03*
X271780Y36830D02*
D03*
X290830Y153670D02*
D03*
X181610Y34290D02*
D03*
X335280Y372110D02*
D03*
X414020Y349250D02*
D03*
X283210Y364490D02*
D03*
X142240Y53340D02*
D03*
X73660Y166370D02*
D03*
M02*
