G04*
G04 #@! TF.GenerationSoftware,Altium Limited,Altium Designer,24.8.2 (39)*
G04*
G04 Layer_Color=8388736*
%FSLAX44Y44*%
%MOMM*%
G71*
G04*
G04 #@! TF.SameCoordinates,090D7C54-D181-4F83-8BE1-2E2D76EF1379*
G04*
G04*
G04 #@! TF.FilePolarity,Negative*
G04*
G01*
G75*
G04:AMPARAMS|DCode=14|XSize=1.97mm|YSize=0.6mm|CornerRadius=0.075mm|HoleSize=0mm|Usage=FLASHONLY|Rotation=90.000|XOffset=0mm|YOffset=0mm|HoleType=Round|Shape=RoundedRectangle|*
%AMROUNDEDRECTD14*
21,1,1.9700,0.4500,0,0,90.0*
21,1,1.8200,0.6000,0,0,90.0*
1,1,0.1500,0.2250,0.9100*
1,1,0.1500,0.2250,-0.9100*
1,1,0.1500,-0.2250,-0.9100*
1,1,0.1500,-0.2250,0.9100*
%
%ADD14ROUNDEDRECTD14*%
%ADD46R,1.1732X1.1432*%
%ADD47R,1.1732X1.2032*%
%ADD48R,1.1432X1.1732*%
G04:AMPARAMS|DCode=49|XSize=1.1432mm|YSize=1.2232mm|CornerRadius=0.1956mm|HoleSize=0mm|Usage=FLASHONLY|Rotation=270.000|XOffset=0mm|YOffset=0mm|HoleType=Round|Shape=RoundedRectangle|*
%AMROUNDEDRECTD49*
21,1,1.1432,0.8320,0,0,270.0*
21,1,0.7520,1.2232,0,0,270.0*
1,1,0.3912,-0.4160,-0.3760*
1,1,0.3912,-0.4160,0.3760*
1,1,0.3912,0.4160,0.3760*
1,1,0.3912,0.4160,-0.3760*
%
%ADD49ROUNDEDRECTD49*%
%ADD50R,1.0032X1.0032*%
G04:AMPARAMS|DCode=51|XSize=1.1432mm|YSize=1.2232mm|CornerRadius=0.1956mm|HoleSize=0mm|Usage=FLASHONLY|Rotation=0.000|XOffset=0mm|YOffset=0mm|HoleType=Round|Shape=RoundedRectangle|*
%AMROUNDEDRECTD51*
21,1,1.1432,0.8320,0,0,0.0*
21,1,0.7520,1.2232,0,0,0.0*
1,1,0.3912,0.3760,-0.4160*
1,1,0.3912,-0.3760,-0.4160*
1,1,0.3912,-0.3760,0.4160*
1,1,0.3912,0.3760,0.4160*
%
%ADD51ROUNDEDRECTD51*%
%ADD52R,1.7032X1.5032*%
%ADD53R,1.5032X1.5032*%
%ADD54R,1.2532X0.8032*%
%ADD55R,1.7032X1.5032*%
%ADD56R,1.7532X1.7032*%
%ADD57R,1.5532X0.6032*%
%ADD58R,0.8032X1.2532*%
%ADD59R,1.2032X2.2032*%
%ADD60R,1.6032X1.2032*%
%ADD61R,1.4332X0.8032*%
%ADD62R,1.5032X1.7032*%
%ADD63R,0.7100X1.6000*%
%ADD64R,1.6000X0.7100*%
%ADD65R,1.7032X1.9032*%
%ADD66R,1.2954X2.1082*%
%ADD67R,0.9032X0.7032*%
%ADD68R,1.2032X1.6032*%
%ADD69C,3.0000*%
%ADD70R,2.0132X3.6840*%
%ADD71R,2.0132X1.0932*%
G04:AMPARAMS|DCode=72|XSize=1.2032mm|YSize=1.2032mm|CornerRadius=0.3516mm|HoleSize=0mm|Usage=FLASHONLY|Rotation=0.000|XOffset=0mm|YOffset=0mm|HoleType=Round|Shape=RoundedRectangle|*
%AMROUNDEDRECTD72*
21,1,1.2032,0.5000,0,0,0.0*
21,1,0.5000,1.2032,0,0,0.0*
1,1,0.7032,0.2500,-0.2500*
1,1,0.7032,-0.2500,-0.2500*
1,1,0.7032,-0.2500,0.2500*
1,1,0.7032,0.2500,0.2500*
%
%ADD72ROUNDEDRECTD72*%
%ADD73R,2.2032X2.2032*%
%ADD74R,1.2032X1.1732*%
%ADD75R,1.9332X1.1732*%
%ADD76C,1.6724*%
%ADD77R,1.6724X1.6724*%
%ADD78O,1.1532X1.5032*%
%ADD79R,1.2132X1.2132*%
%ADD80C,1.2132*%
%ADD81C,0.6032*%
%ADD82C,1.0032*%
G36*
X342000Y304603D02*
X333521D01*
Y304613D01*
X330000D01*
Y304596D01*
X321505D01*
Y304634D01*
X313495D01*
Y304645D01*
X310000D01*
Y304635D01*
X306000D01*
Y304592D01*
X297486D01*
Y304595D01*
X293480D01*
Y304639D01*
X289436D01*
Y308070D01*
X342000D01*
Y304603D01*
D02*
G37*
G36*
X350000Y296613D02*
X341555D01*
Y300070D01*
X350000D01*
Y296613D01*
D02*
G37*
G36*
X290000Y296603D02*
X281444D01*
Y300070D01*
X290000D01*
Y296603D01*
D02*
G37*
G36*
Y292620D02*
X281395D01*
Y296070D01*
X290000D01*
Y292620D01*
D02*
G37*
G36*
X350000Y292575D02*
X341508D01*
Y296070D01*
X350000D01*
Y292575D01*
D02*
G37*
G36*
X290000Y288595D02*
X281431D01*
Y292070D01*
X290000D01*
Y288595D01*
D02*
G37*
G36*
X350000Y288580D02*
X341520D01*
Y292070D01*
X350000D01*
Y288580D01*
D02*
G37*
G36*
X290000Y284589D02*
X281420D01*
Y288070D01*
X290000D01*
Y284589D01*
D02*
G37*
G36*
X350000Y284579D02*
X341527D01*
Y288070D01*
X350000D01*
Y284579D01*
D02*
G37*
G36*
Y280579D02*
X341557D01*
Y284070D01*
X350000D01*
Y280579D01*
D02*
G37*
G36*
X290000Y280577D02*
X281443D01*
Y284070D01*
X290000D01*
Y280577D01*
D02*
G37*
G36*
Y276571D02*
X281385D01*
Y280070D01*
X290000D01*
Y276571D01*
D02*
G37*
G36*
X350000Y276571D02*
X341560D01*
Y280070D01*
X350000D01*
Y276571D01*
D02*
G37*
G36*
X290000Y272568D02*
X281483D01*
Y276070D01*
X290000D01*
Y272568D01*
D02*
G37*
G36*
X350000Y272568D02*
X341517D01*
Y276070D01*
X350000D01*
Y272568D01*
D02*
G37*
G36*
X290000Y268564D02*
X281472D01*
Y272070D01*
X290000D01*
Y268564D01*
D02*
G37*
G36*
X350000Y268556D02*
X341548D01*
Y272070D01*
X350000D01*
Y268556D01*
D02*
G37*
G36*
X290000Y264537D02*
X281405D01*
Y268070D01*
X290000D01*
Y264537D01*
D02*
G37*
G36*
X350000Y264531D02*
X341587D01*
Y268070D01*
X350000D01*
Y264531D01*
D02*
G37*
G36*
Y260556D02*
X341524D01*
Y264070D01*
X350000D01*
Y260556D01*
D02*
G37*
G36*
X290000Y260541D02*
X281438D01*
Y264070D01*
X290000D01*
Y260541D01*
D02*
G37*
G36*
Y256512D02*
X281399D01*
Y260070D01*
X290000D01*
Y256512D01*
D02*
G37*
G36*
X350000Y256499D02*
X341592D01*
Y260070D01*
X350000D01*
Y256499D01*
D02*
G37*
G36*
X290000Y252517D02*
X281423D01*
Y256070D01*
X290000D01*
Y252517D01*
D02*
G37*
G36*
X350000Y252507D02*
X341568D01*
Y256070D01*
X350000D01*
Y252507D01*
D02*
G37*
G36*
X342000Y244528D02*
X338000D01*
Y244519D01*
X334000D01*
Y244497D01*
X330000D01*
Y244495D01*
X321514D01*
Y244516D01*
X318000D01*
Y244494D01*
X314000D01*
Y244488D01*
X305473D01*
Y244495D01*
X302000D01*
Y244484D01*
X298000D01*
Y244469D01*
X289417D01*
Y248070D01*
X342000D01*
Y244528D01*
D02*
G37*
G36*
X13220Y213000D02*
X13540Y212980D01*
X13850Y212940D01*
X14160Y212880D01*
X14460Y212810D01*
X14760Y212720D01*
X15060Y212610D01*
X15350Y212490D01*
X15630Y212360D01*
X15910Y212210D01*
X16180Y212040D01*
X16440Y211860D01*
X16690Y211670D01*
X16920Y211470D01*
X17150Y211250D01*
X17370Y211020D01*
X17570Y210790D01*
X17760Y210540D01*
X17940Y210280D01*
X18110Y210010D01*
X18260Y209730D01*
X18390Y209450D01*
X18510Y209160D01*
X18620Y208860D01*
X18710Y208560D01*
X18780Y208260D01*
X18840Y207950D01*
X18880Y207640D01*
X18900Y207320D01*
X18910Y207010D01*
Y194560D01*
X1410D01*
Y207010D01*
X1420Y207320D01*
X1440Y207640D01*
X1480Y207950D01*
X1540Y208260D01*
X1610Y208560D01*
X1700Y208860D01*
X1810Y209160D01*
X1930Y209450D01*
X2060Y209730D01*
X2210Y210010D01*
X2380Y210280D01*
X2560Y210540D01*
X2750Y210790D01*
X2950Y211020D01*
X3170Y211250D01*
X3400Y211470D01*
X3630Y211670D01*
X3880Y211860D01*
X4140Y212040D01*
X4410Y212210D01*
X4690Y212360D01*
X4970Y212490D01*
X5260Y212610D01*
X5560Y212720D01*
X5860Y212810D01*
X6160Y212880D01*
X6470Y212940D01*
X6780Y212980D01*
X7100Y213000D01*
X7410Y213010D01*
X12910D01*
X13220Y213000D01*
D02*
G37*
G36*
X435610Y302260D02*
X506730D01*
Y285750D01*
X468630D01*
Y279400D01*
X506730D01*
Y262890D01*
X468630D01*
Y256540D01*
X506730D01*
Y240030D01*
X468630D01*
Y233680D01*
X506730D01*
Y186690D01*
X501650D01*
Y228600D01*
X463550D01*
Y245110D01*
X501650D01*
Y251460D01*
X463550D01*
Y262890D01*
Y267970D01*
X501650D01*
Y274320D01*
X463550D01*
Y290830D01*
X501650D01*
Y297180D01*
X448310D01*
Y227330D01*
X443230D01*
Y297180D01*
X435610D01*
X425873Y294746D01*
X421640D01*
Y304694D01*
X425873D01*
X435610Y302260D01*
D02*
G37*
G36*
X18910Y138110D02*
X18900Y137800D01*
X18880Y137480D01*
X18840Y137170D01*
X18780Y136860D01*
X18710Y136560D01*
X18620Y136260D01*
X18510Y135960D01*
X18390Y135670D01*
X18260Y135390D01*
X18110Y135110D01*
X17940Y134840D01*
X17760Y134580D01*
X17570Y134330D01*
X17370Y134100D01*
X17150Y133870D01*
X16920Y133650D01*
X16690Y133450D01*
X16440Y133260D01*
X16180Y133080D01*
X15910Y132910D01*
X15630Y132760D01*
X15350Y132630D01*
X15060Y132510D01*
X14760Y132400D01*
X14460Y132310D01*
X14160Y132240D01*
X13850Y132180D01*
X13540Y132140D01*
X13220Y132120D01*
X12910Y132110D01*
X7410D01*
X7100Y132120D01*
X6780Y132140D01*
X6470Y132180D01*
X6160Y132240D01*
X5860Y132310D01*
X5560Y132400D01*
X5260Y132510D01*
X4970Y132630D01*
X4690Y132760D01*
X4410Y132910D01*
X4140Y133080D01*
X3880Y133260D01*
X3630Y133450D01*
X3400Y133650D01*
X3170Y133870D01*
X2950Y134100D01*
X2750Y134330D01*
X2560Y134580D01*
X2380Y134840D01*
X2210Y135110D01*
X2060Y135390D01*
X1930Y135670D01*
X1810Y135960D01*
X1700Y136260D01*
X1610Y136560D01*
X1540Y136860D01*
X1480Y137170D01*
X1440Y137480D01*
X1420Y137800D01*
X1410Y138110D01*
Y150560D01*
X18910D01*
Y138110D01*
D02*
G37*
D14*
X102870Y119350D02*
D03*
X115570D02*
D03*
X128270D02*
D03*
X140970D02*
D03*
Y69850D02*
D03*
X128270D02*
D03*
X115570D02*
D03*
X102870D02*
D03*
D46*
X398900Y252730D02*
D03*
X413900D02*
D03*
X308490Y367030D02*
D03*
X293490D02*
D03*
X398900Y238760D02*
D03*
X413900D02*
D03*
X245230Y254000D02*
D03*
X260230D02*
D03*
X246500Y312420D02*
D03*
X261500D02*
D03*
X353180Y374650D02*
D03*
X368180D02*
D03*
X362070Y299720D02*
D03*
X377070D02*
D03*
X398900D02*
D03*
X413900D02*
D03*
Y269240D02*
D03*
X398900D02*
D03*
D47*
X368300Y268970D02*
D03*
Y254270D02*
D03*
X383540Y253730D02*
D03*
Y239030D02*
D03*
D48*
Y223400D02*
D03*
Y208400D02*
D03*
X125730Y265310D02*
D03*
Y250310D02*
D03*
X97790Y342780D02*
D03*
Y327780D02*
D03*
X335280Y345560D02*
D03*
Y360560D02*
D03*
X383540Y269360D02*
D03*
Y284360D02*
D03*
X414020Y322700D02*
D03*
Y337700D02*
D03*
X271780Y337940D02*
D03*
Y352940D02*
D03*
D49*
X281940Y206020D02*
D03*
Y190220D02*
D03*
X210820Y262610D02*
D03*
Y278410D02*
D03*
X81280Y306350D02*
D03*
Y290550D02*
D03*
X99060Y306350D02*
D03*
Y290550D02*
D03*
X372110Y86080D02*
D03*
Y101880D02*
D03*
X351790Y86080D02*
D03*
Y101880D02*
D03*
X129540Y164110D02*
D03*
Y148310D02*
D03*
X113030Y164110D02*
D03*
Y148310D02*
D03*
D50*
X299720Y189870D02*
D03*
Y206370D02*
D03*
X128270Y192410D02*
D03*
Y208910D02*
D03*
X113030D02*
D03*
Y192410D02*
D03*
D51*
X193320Y240030D02*
D03*
X177520D02*
D03*
X126720Y323850D02*
D03*
X142520D02*
D03*
X143230Y339090D02*
D03*
X159030D02*
D03*
X67030Y345440D02*
D03*
X82830D02*
D03*
X67030Y327660D02*
D03*
X82830D02*
D03*
X42190D02*
D03*
X26390D02*
D03*
X213640Y34290D02*
D03*
X197840D02*
D03*
X274040Y86360D02*
D03*
X289840D02*
D03*
X351510Y208280D02*
D03*
X367310D02*
D03*
X117120Y46990D02*
D03*
X101320D02*
D03*
D52*
X58700Y273610D02*
D03*
X13700D02*
D03*
D53*
X12700Y308610D02*
D03*
D54*
X12670Y236220D02*
D03*
X40670D02*
D03*
X278100Y59690D02*
D03*
X306100D02*
D03*
X326360Y35560D02*
D03*
X354360D02*
D03*
D55*
X214630Y203810D02*
D03*
Y184810D02*
D03*
X161290Y100990D02*
D03*
Y119990D02*
D03*
X88900Y161900D02*
D03*
Y142900D02*
D03*
D56*
X10160Y162560D02*
D03*
Y182560D02*
D03*
D57*
X36910Y159560D02*
D03*
Y166060D02*
D03*
Y172560D02*
D03*
Y179060D02*
D03*
Y185560D02*
D03*
D58*
X326390Y58390D02*
D03*
Y86390D02*
D03*
D59*
X392430Y34060D02*
D03*
Y164060D02*
D03*
D60*
X291690Y137770D02*
D03*
Y118770D02*
D03*
X313690Y128270D02*
D03*
D61*
X259520Y46380D02*
D03*
Y65380D02*
D03*
X238320Y55880D02*
D03*
D62*
X216510Y62230D02*
D03*
X197510D02*
D03*
X216510Y83820D02*
D03*
X197510D02*
D03*
D63*
X172720Y311520D02*
D03*
Y262520D02*
D03*
D64*
X159720Y307020D02*
D03*
Y299020D02*
D03*
Y291020D02*
D03*
Y283020D02*
D03*
Y275020D02*
D03*
Y267020D02*
D03*
X185720Y307020D02*
D03*
Y299020D02*
D03*
Y291020D02*
D03*
Y283020D02*
D03*
Y275020D02*
D03*
Y267020D02*
D03*
D65*
X392000Y323850D02*
D03*
Y349250D02*
D03*
X370000D02*
D03*
Y323850D02*
D03*
D66*
X315722Y337820D02*
D03*
X291338D02*
D03*
D67*
X51910Y345440D02*
D03*
X31910D02*
D03*
D68*
X99670Y262460D02*
D03*
X80670D02*
D03*
X90170Y240460D02*
D03*
D69*
X63500Y60960D02*
D03*
X462280Y353060D02*
D03*
D70*
X195960Y132080D02*
D03*
D71*
X256160Y155080D02*
D03*
Y132080D02*
D03*
Y109080D02*
D03*
D72*
X274320Y161290D02*
D03*
X6350Y347980D02*
D03*
Y327660D02*
D03*
D73*
X21590Y34930D02*
D03*
Y114930D02*
D03*
D74*
X413750Y284480D02*
D03*
X399050D02*
D03*
D75*
X90170Y179510D02*
D03*
Y209110D02*
D03*
D76*
X161290Y198910D02*
D03*
D77*
Y168910D02*
D03*
D78*
X37160Y147560D02*
D03*
Y197560D02*
D03*
D79*
X363220Y186690D02*
D03*
X234950Y359410D02*
D03*
D80*
X388620Y186690D02*
D03*
X209550Y359410D02*
D03*
D81*
X151130Y228600D02*
D03*
X222250Y334010D02*
D03*
X214630Y341630D02*
D03*
X142240Y236220D02*
D03*
X135890Y242570D02*
D03*
X226060Y262890D02*
D03*
X641350Y306070D02*
D03*
X424180Y26670D02*
D03*
X431800D02*
D03*
X424180Y34290D02*
D03*
X431800D02*
D03*
X424180Y41910D02*
D03*
X431800D02*
D03*
X424180Y49530D02*
D03*
X431800D02*
D03*
X424180Y57150D02*
D03*
X431800D02*
D03*
X424180Y64770D02*
D03*
X431800D02*
D03*
X424180Y72390D02*
D03*
X431800D02*
D03*
X424180Y80010D02*
D03*
X431800D02*
D03*
X424180Y87630D02*
D03*
X431800D02*
D03*
X424180Y95250D02*
D03*
X431800D02*
D03*
X424180Y102870D02*
D03*
X431800D02*
D03*
X424180Y110490D02*
D03*
X431800D02*
D03*
X424180Y118110D02*
D03*
X431800D02*
D03*
X424180Y125730D02*
D03*
X431800D02*
D03*
X424180Y133350D02*
D03*
X431800D02*
D03*
X424180Y140970D02*
D03*
X431800D02*
D03*
X424180Y148590D02*
D03*
X431800D02*
D03*
X424180Y156210D02*
D03*
X431800D02*
D03*
X424180Y163830D02*
D03*
X431800D02*
D03*
X424180Y171450D02*
D03*
X431800D02*
D03*
X424180Y179070D02*
D03*
X431800D02*
D03*
X424180Y186690D02*
D03*
X431800D02*
D03*
X424180Y194310D02*
D03*
X431800D02*
D03*
X424180Y201930D02*
D03*
X431800D02*
D03*
X445770Y229870D02*
D03*
D03*
X431800Y209550D02*
D03*
X424180D02*
D03*
X416560Y217170D02*
D03*
X408940D02*
D03*
X401320D02*
D03*
Y224790D02*
D03*
X408940D02*
D03*
X416560D02*
D03*
X424180Y217170D02*
D03*
Y224790D02*
D03*
Y232410D02*
D03*
Y240030D02*
D03*
Y247650D02*
D03*
Y255270D02*
D03*
Y262890D02*
D03*
Y270510D02*
D03*
Y278130D02*
D03*
Y358140D02*
D03*
Y350520D02*
D03*
Y342900D02*
D03*
Y335280D02*
D03*
Y327660D02*
D03*
Y320040D02*
D03*
X386080Y373380D02*
D03*
X393700D02*
D03*
X401320D02*
D03*
X408940Y365760D02*
D03*
X416560D02*
D03*
X408940Y373380D02*
D03*
X416560D02*
D03*
X424180Y365760D02*
D03*
Y373380D02*
D03*
X431800D02*
D03*
Y365760D02*
D03*
Y358140D02*
D03*
Y350520D02*
D03*
Y217170D02*
D03*
Y224790D02*
D03*
Y232410D02*
D03*
Y240030D02*
D03*
Y247650D02*
D03*
X424180Y285750D02*
D03*
Y312420D02*
D03*
X431800Y342900D02*
D03*
Y335280D02*
D03*
Y327660D02*
D03*
Y320040D02*
D03*
Y312420D02*
D03*
Y255270D02*
D03*
Y262890D02*
D03*
Y270510D02*
D03*
Y278130D02*
D03*
Y285750D02*
D03*
D82*
X81280Y280670D02*
D03*
X312420Y207010D02*
D03*
X325120Y191770D02*
D03*
X332740Y270510D02*
D03*
Y257810D02*
D03*
X321310D02*
D03*
X309880D02*
D03*
X298450D02*
D03*
X332740Y294640D02*
D03*
X309880D02*
D03*
X298450D02*
D03*
X335280Y207010D02*
D03*
X355600Y314960D02*
D03*
X367030Y27940D02*
D03*
X408940Y26670D02*
D03*
X321310Y270510D02*
D03*
X309880D02*
D03*
X298450D02*
D03*
X332740Y281940D02*
D03*
X321310D02*
D03*
X309880D02*
D03*
X298450D02*
D03*
X321310Y294640D02*
D03*
X271780Y295910D02*
D03*
X233680Y323850D02*
D03*
X259080Y351790D02*
D03*
X260350Y325120D02*
D03*
X389890Y299720D02*
D03*
X260350Y229870D02*
D03*
X200660Y316230D02*
D03*
X173990Y325120D02*
D03*
X144780Y294640D02*
D03*
X109100Y327780D02*
D03*
X233680Y254000D02*
D03*
X279400Y218440D02*
D03*
X354330Y120650D02*
D03*
X31750Y358140D02*
D03*
X180340Y208280D02*
D03*
X290830Y99060D02*
D03*
X271780Y36830D02*
D03*
X290830Y153670D02*
D03*
X181610Y34290D02*
D03*
X335280Y372110D02*
D03*
X414020Y349250D02*
D03*
X283210Y364490D02*
D03*
X142240Y53340D02*
D03*
X73660Y166370D02*
D03*
M02*
